<svg class="logo" data-name="L.1- Logo" xmlns="http://www.w3.org/2000/svg" viewBox="0 0 512 440.15"><path d="M512,340.89v24.44H496.79q-27.69,0-46.14-3.22t-30.92-12q-12.47-8.78-21.67-26.31l-54.92-101.5H312.7V195.55h25.83q31.83,0,43.82-17.06t12-50.75q0-35.05-12.93-49.82T337.61,63.15h-10c-9.23,0-13.82,1.5-15.23,2.05a2.3,2.3,0,0,0-.35.17s-.06,0-.06,0c-1.56.74-2.73,1.35-2.73,1.35A61.74,61.74,0,0,0,302,71.23c-11.52,8.18-29.85,27-32.05,29.3l-30.1,33.06L209,167.42,239.8,216.3l55,87.23Q305.2,319.46,314.42,328a52.08,52.08,0,0,0,6,4.84,46.6,46.6,0,0,0,27,8.08h1.84v24.44H320q-32-.27-49.89-4.59Q251,356.12,240.6,346.9a79.65,79.65,0,0,1-9.27-9.85,107.55,107.55,0,0,1-9.43-14.14L159.63,216.8l-20.3,16.13V366.27q0,31.38-10.15,52.6t-27.46,33.67a114.24,114.24,0,0,1-39.45,18,187.55,187.55,0,0,1-45.66,5.54H0V449.32H8.3a54.85,54.85,0,0,0,28.14-7.86q13.38-7.83,21.69-25.83t8.3-48.91V88.54q0-18.45-6.93-23.31a28.27,28.27,0,0,0-16.6-4.84H23.52V35.92H182.7V60.39H163.32c-6.77,0-12.47,1.7-17.08,5.06s-6.91,11.71-6.91,24.91V197.87l71.5-78q14.76-15.66,20.54-26.29t5.77-20.3a18.78,18.78,0,0,0-.19-2.68,9.86,9.86,0,0,0-5.58-7.94q-5.77-2.76-20.07-2.77v-24H345.44q65.52,0,96,21.92t30.45,63.44q0,24.47-9.22,41.53a88.25,88.25,0,0,1-23.54,28.13,130,130,0,0,1-30,17.53L464,303.06q11.53,19.83,22.14,28.83a36.07,36.07,0,0,0,24,9Z" transform="translate(0 -35.92)"/></svg>
